<svg xmlns="http://www.w3.org/2000/svg" width="76.516" height="21.553" viewBox="0 0 76.516 21.553">
  <g id="Group_1504" data-name="Group 1504" transform="translate(-68 -14)">
    <path id="Path_688" data-name="Path 688" d="M1171.024,751.882l-6.349-7.5L1161,740.04v21.545h3.675V750.071l3.941,4.654,2.407,2.845,2.408-2.845,3.941-4.654v11.514h3.675V740.04l-3.675,4.342Z" transform="translate(-1093 -726.033)"/>
    <path id="Path_689" data-name="Path 689" d="M1541.537,743.676V740H1526v21.552h3.675v-9.523h8.52v-3.676h-8.52v-4.678Z" transform="translate(-1397.021 -726)"/>
    <path id="Path_690" data-name="Path 690" d="M1305.776,740a10.776,10.776,0,1,0,10.776,10.776A10.788,10.788,0,0,0,1305.776,740Zm0,17.876a7.1,7.1,0,1,1,7.1-7.1A7.108,7.108,0,0,1,1305.776,757.876Z" transform="translate(-1204.614 -726)"/>
    <path id="Path_691" data-name="Path 691" d="M1430.9,748.017a7.025,7.025,0,0,0-7.017-7.017h-8.246l2.1,3.675h6.145a3.341,3.341,0,0,1,1.5,6.328,3.3,3.3,0,0,1-1.5.354h-2.342l6.3,11.026h4.04l-4.678-8.188A7.021,7.021,0,0,0,1430.9,748.017Z" transform="translate(-1305.099 -726.832)"/>
  </g>
</svg>
